<?xml version="1.0" standalone="no"?>
<svg xmlns="http://www.w3.org/2000/svg" version="1.1" width="125" height="125" viewBox="0 0 125 125" shape-rendering="crispEdges" role="img" aria-labelledby="title desc">
  <title id="title">Nostroots app download QR code</title>
  <desc id="desc">https://nos.trustroots.org/app/</desc>
  <rect width="125" height="125" fill="#fff"/>
  <path fill="#000" d="M 0,0 l 5,0 0,5 -5,0 z M 5,0 l 5,0 0,5 -5,0 z M 10,0 l 5,0 0,5 -5,0 z M 15,0 l 5,0 0,5 -5,0 z M 20,0 l 5,0 0,5 -5,0 z M 25,0 l 5,0 0,5 -5,0 z M 30,0 l 5,0 0,5 -5,0 z M 45,0 l 5,0 0,5 -5,0 z M 50,0 l 5,0 0,5 -5,0 z M 55,0 l 5,0 0,5 -5,0 z M 70,0 l 5,0 0,5 -5,0 z M 80,0 l 5,0 0,5 -5,0 z M 90,0 l 5,0 0,5 -5,0 z M 95,0 l 5,0 0,5 -5,0 z M 100,0 l 5,0 0,5 -5,0 z M 105,0 l 5,0 0,5 -5,0 z M 110,0 l 5,0 0,5 -5,0 z M 115,0 l 5,0 0,5 -5,0 z M 120,0 l 5,0 0,5 -5,0 z M 0,5 l 5,0 0,5 -5,0 z M 30,5 l 5,0 0,5 -5,0 z M 40,5 l 5,0 0,5 -5,0 z M 45,5 l 5,0 0,5 -5,0 z M 60,5 l 5,0 0,5 -5,0 z M 65,5 l 5,0 0,5 -5,0 z M 75,5 l 5,0 0,5 -5,0 z M 90,5 l 5,0 0,5 -5,0 z M 120,5 l 5,0 0,5 -5,0 z M 0,10 l 5,0 0,5 -5,0 z M 10,10 l 5,0 0,5 -5,0 z M 15,10 l 5,0 0,5 -5,0 z M 20,10 l 5,0 0,5 -5,0 z M 30,10 l 5,0 0,5 -5,0 z M 45,10 l 5,0 0,5 -5,0 z M 60,10 l 5,0 0,5 -5,0 z M 75,10 l 5,0 0,5 -5,0 z M 80,10 l 5,0 0,5 -5,0 z M 90,10 l 5,0 0,5 -5,0 z M 100,10 l 5,0 0,5 -5,0 z M 105,10 l 5,0 0,5 -5,0 z M 110,10 l 5,0 0,5 -5,0 z M 120,10 l 5,0 0,5 -5,0 z M 0,15 l 5,0 0,5 -5,0 z M 10,15 l 5,0 0,5 -5,0 z M 15,15 l 5,0 0,5 -5,0 z M 20,15 l 5,0 0,5 -5,0 z M 30,15 l 5,0 0,5 -5,0 z M 40,15 l 5,0 0,5 -5,0 z M 65,15 l 5,0 0,5 -5,0 z M 70,15 l 5,0 0,5 -5,0 z M 75,15 l 5,0 0,5 -5,0 z M 80,15 l 5,0 0,5 -5,0 z M 90,15 l 5,0 0,5 -5,0 z M 100,15 l 5,0 0,5 -5,0 z M 105,15 l 5,0 0,5 -5,0 z M 110,15 l 5,0 0,5 -5,0 z M 120,15 l 5,0 0,5 -5,0 z M 0,20 l 5,0 0,5 -5,0 z M 10,20 l 5,0 0,5 -5,0 z M 15,20 l 5,0 0,5 -5,0 z M 20,20 l 5,0 0,5 -5,0 z M 30,20 l 5,0 0,5 -5,0 z M 55,20 l 5,0 0,5 -5,0 z M 65,20 l 5,0 0,5 -5,0 z M 80,20 l 5,0 0,5 -5,0 z M 90,20 l 5,0 0,5 -5,0 z M 100,20 l 5,0 0,5 -5,0 z M 105,20 l 5,0 0,5 -5,0 z M 110,20 l 5,0 0,5 -5,0 z M 120,20 l 5,0 0,5 -5,0 z M 0,25 l 5,0 0,5 -5,0 z M 30,25 l 5,0 0,5 -5,0 z M 40,25 l 5,0 0,5 -5,0 z M 50,25 l 5,0 0,5 -5,0 z M 65,25 l 5,0 0,5 -5,0 z M 70,25 l 5,0 0,5 -5,0 z M 75,25 l 5,0 0,5 -5,0 z M 80,25 l 5,0 0,5 -5,0 z M 90,25 l 5,0 0,5 -5,0 z M 120,25 l 5,0 0,5 -5,0 z M 0,30 l 5,0 0,5 -5,0 z M 5,30 l 5,0 0,5 -5,0 z M 10,30 l 5,0 0,5 -5,0 z M 15,30 l 5,0 0,5 -5,0 z M 20,30 l 5,0 0,5 -5,0 z M 25,30 l 5,0 0,5 -5,0 z M 30,30 l 5,0 0,5 -5,0 z M 40,30 l 5,0 0,5 -5,0 z M 50,30 l 5,0 0,5 -5,0 z M 60,30 l 5,0 0,5 -5,0 z M 70,30 l 5,0 0,5 -5,0 z M 80,30 l 5,0 0,5 -5,0 z M 90,30 l 5,0 0,5 -5,0 z M 95,30 l 5,0 0,5 -5,0 z M 100,30 l 5,0 0,5 -5,0 z M 105,30 l 5,0 0,5 -5,0 z M 110,30 l 5,0 0,5 -5,0 z M 115,30 l 5,0 0,5 -5,0 z M 120,30 l 5,0 0,5 -5,0 z M 45,35 l 5,0 0,5 -5,0 z M 50,35 l 5,0 0,5 -5,0 z M 60,35 l 5,0 0,5 -5,0 z M 70,35 l 5,0 0,5 -5,0 z M 0,40 l 5,0 0,5 -5,0 z M 5,40 l 5,0 0,5 -5,0 z M 10,40 l 5,0 0,5 -5,0 z M 15,40 l 5,0 0,5 -5,0 z M 20,40 l 5,0 0,5 -5,0 z M 30,40 l 5,0 0,5 -5,0 z M 35,40 l 5,0 0,5 -5,0 z M 40,40 l 5,0 0,5 -5,0 z M 45,40 l 5,0 0,5 -5,0 z M 60,40 l 5,0 0,5 -5,0 z M 65,40 l 5,0 0,5 -5,0 z M 70,40 l 5,0 0,5 -5,0 z M 75,40 l 5,0 0,5 -5,0 z M 80,40 l 5,0 0,5 -5,0 z M 85,40 l 5,0 0,5 -5,0 z M 95,40 l 5,0 0,5 -5,0 z M 105,40 l 5,0 0,5 -5,0 z M 115,40 l 5,0 0,5 -5,0 z M 0,45 l 5,0 0,5 -5,0 z M 20,45 l 5,0 0,5 -5,0 z M 40,45 l 5,0 0,5 -5,0 z M 55,45 l 5,0 0,5 -5,0 z M 65,45 l 5,0 0,5 -5,0 z M 80,45 l 5,0 0,5 -5,0 z M 95,45 l 5,0 0,5 -5,0 z M 115,45 l 5,0 0,5 -5,0 z M 0,50 l 5,0 0,5 -5,0 z M 10,50 l 5,0 0,5 -5,0 z M 20,50 l 5,0 0,5 -5,0 z M 25,50 l 5,0 0,5 -5,0 z M 30,50 l 5,0 0,5 -5,0 z M 35,50 l 5,0 0,5 -5,0 z M 50,50 l 5,0 0,5 -5,0 z M 65,50 l 5,0 0,5 -5,0 z M 70,50 l 5,0 0,5 -5,0 z M 75,50 l 5,0 0,5 -5,0 z M 80,50 l 5,0 0,5 -5,0 z M 85,50 l 5,0 0,5 -5,0 z M 100,50 l 5,0 0,5 -5,0 z M 105,50 l 5,0 0,5 -5,0 z M 115,50 l 5,0 0,5 -5,0 z M 120,50 l 5,0 0,5 -5,0 z M 0,55 l 5,0 0,5 -5,0 z M 5,55 l 5,0 0,5 -5,0 z M 15,55 l 5,0 0,5 -5,0 z M 40,55 l 5,0 0,5 -5,0 z M 55,55 l 5,0 0,5 -5,0 z M 70,55 l 5,0 0,5 -5,0 z M 75,55 l 5,0 0,5 -5,0 z M 80,55 l 5,0 0,5 -5,0 z M 85,55 l 5,0 0,5 -5,0 z M 95,55 l 5,0 0,5 -5,0 z M 100,55 l 5,0 0,5 -5,0 z M 120,55 l 5,0 0,5 -5,0 z M 5,60 l 5,0 0,5 -5,0 z M 25,60 l 5,0 0,5 -5,0 z M 30,60 l 5,0 0,5 -5,0 z M 40,60 l 5,0 0,5 -5,0 z M 45,60 l 5,0 0,5 -5,0 z M 50,60 l 5,0 0,5 -5,0 z M 55,60 l 5,0 0,5 -5,0 z M 60,60 l 5,0 0,5 -5,0 z M 65,60 l 5,0 0,5 -5,0 z M 70,60 l 5,0 0,5 -5,0 z M 75,60 l 5,0 0,5 -5,0 z M 80,60 l 5,0 0,5 -5,0 z M 85,60 l 5,0 0,5 -5,0 z M 90,60 l 5,0 0,5 -5,0 z M 100,60 l 5,0 0,5 -5,0 z M 110,60 l 5,0 0,5 -5,0 z M 115,60 l 5,0 0,5 -5,0 z M 120,60 l 5,0 0,5 -5,0 z M 0,65 l 5,0 0,5 -5,0 z M 20,65 l 5,0 0,5 -5,0 z M 25,65 l 5,0 0,5 -5,0 z M 55,65 l 5,0 0,5 -5,0 z M 60,65 l 5,0 0,5 -5,0 z M 70,65 l 5,0 0,5 -5,0 z M 80,65 l 5,0 0,5 -5,0 z M 85,65 l 5,0 0,5 -5,0 z M 95,65 l 5,0 0,5 -5,0 z M 105,65 l 5,0 0,5 -5,0 z M 115,65 l 5,0 0,5 -5,0 z M 0,70 l 5,0 0,5 -5,0 z M 10,70 l 5,0 0,5 -5,0 z M 30,70 l 5,0 0,5 -5,0 z M 50,70 l 5,0 0,5 -5,0 z M 70,70 l 5,0 0,5 -5,0 z M 75,70 l 5,0 0,5 -5,0 z M 90,70 l 5,0 0,5 -5,0 z M 95,70 l 5,0 0,5 -5,0 z M 100,70 l 5,0 0,5 -5,0 z M 105,70 l 5,0 0,5 -5,0 z M 115,70 l 5,0 0,5 -5,0 z M 120,70 l 5,0 0,5 -5,0 z M 0,75 l 5,0 0,5 -5,0 z M 10,75 l 5,0 0,5 -5,0 z M 45,75 l 5,0 0,5 -5,0 z M 50,75 l 5,0 0,5 -5,0 z M 55,75 l 5,0 0,5 -5,0 z M 85,75 l 5,0 0,5 -5,0 z M 95,75 l 5,0 0,5 -5,0 z M 100,75 l 5,0 0,5 -5,0 z M 120,75 l 5,0 0,5 -5,0 z M 0,80 l 5,0 0,5 -5,0 z M 25,80 l 5,0 0,5 -5,0 z M 30,80 l 5,0 0,5 -5,0 z M 60,80 l 5,0 0,5 -5,0 z M 65,80 l 5,0 0,5 -5,0 z M 70,80 l 5,0 0,5 -5,0 z M 75,80 l 5,0 0,5 -5,0 z M 80,80 l 5,0 0,5 -5,0 z M 85,80 l 5,0 0,5 -5,0 z M 90,80 l 5,0 0,5 -5,0 z M 95,80 l 5,0 0,5 -5,0 z M 100,80 l 5,0 0,5 -5,0 z M 110,80 l 5,0 0,5 -5,0 z M 40,85 l 5,0 0,5 -5,0 z M 45,85 l 5,0 0,5 -5,0 z M 50,85 l 5,0 0,5 -5,0 z M 55,85 l 5,0 0,5 -5,0 z M 70,85 l 5,0 0,5 -5,0 z M 80,85 l 5,0 0,5 -5,0 z M 100,85 l 5,0 0,5 -5,0 z M 105,85 l 5,0 0,5 -5,0 z M 0,90 l 5,0 0,5 -5,0 z M 5,90 l 5,0 0,5 -5,0 z M 10,90 l 5,0 0,5 -5,0 z M 15,90 l 5,0 0,5 -5,0 z M 20,90 l 5,0 0,5 -5,0 z M 25,90 l 5,0 0,5 -5,0 z M 30,90 l 5,0 0,5 -5,0 z M 40,90 l 5,0 0,5 -5,0 z M 60,90 l 5,0 0,5 -5,0 z M 65,90 l 5,0 0,5 -5,0 z M 80,90 l 5,0 0,5 -5,0 z M 90,90 l 5,0 0,5 -5,0 z M 100,90 l 5,0 0,5 -5,0 z M 110,90 l 5,0 0,5 -5,0 z M 115,90 l 5,0 0,5 -5,0 z M 120,90 l 5,0 0,5 -5,0 z M 0,95 l 5,0 0,5 -5,0 z M 30,95 l 5,0 0,5 -5,0 z M 45,95 l 5,0 0,5 -5,0 z M 55,95 l 5,0 0,5 -5,0 z M 60,95 l 5,0 0,5 -5,0 z M 70,95 l 5,0 0,5 -5,0 z M 80,95 l 5,0 0,5 -5,0 z M 100,95 l 5,0 0,5 -5,0 z M 105,95 l 5,0 0,5 -5,0 z M 115,95 l 5,0 0,5 -5,0 z M 0,100 l 5,0 0,5 -5,0 z M 10,100 l 5,0 0,5 -5,0 z M 15,100 l 5,0 0,5 -5,0 z M 20,100 l 5,0 0,5 -5,0 z M 30,100 l 5,0 0,5 -5,0 z M 40,100 l 5,0 0,5 -5,0 z M 45,100 l 5,0 0,5 -5,0 z M 65,100 l 5,0 0,5 -5,0 z M 75,100 l 5,0 0,5 -5,0 z M 80,100 l 5,0 0,5 -5,0 z M 85,100 l 5,0 0,5 -5,0 z M 90,100 l 5,0 0,5 -5,0 z M 95,100 l 5,0 0,5 -5,0 z M 100,100 l 5,0 0,5 -5,0 z M 110,100 l 5,0 0,5 -5,0 z M 115,100 l 5,0 0,5 -5,0 z M 0,105 l 5,0 0,5 -5,0 z M 10,105 l 5,0 0,5 -5,0 z M 15,105 l 5,0 0,5 -5,0 z M 20,105 l 5,0 0,5 -5,0 z M 30,105 l 5,0 0,5 -5,0 z M 40,105 l 5,0 0,5 -5,0 z M 45,105 l 5,0 0,5 -5,0 z M 50,105 l 5,0 0,5 -5,0 z M 55,105 l 5,0 0,5 -5,0 z M 65,105 l 5,0 0,5 -5,0 z M 75,105 l 5,0 0,5 -5,0 z M 90,105 l 5,0 0,5 -5,0 z M 100,105 l 5,0 0,5 -5,0 z M 105,105 l 5,0 0,5 -5,0 z M 110,105 l 5,0 0,5 -5,0 z M 115,105 l 5,0 0,5 -5,0 z M 120,105 l 5,0 0,5 -5,0 z M 0,110 l 5,0 0,5 -5,0 z M 10,110 l 5,0 0,5 -5,0 z M 15,110 l 5,0 0,5 -5,0 z M 20,110 l 5,0 0,5 -5,0 z M 30,110 l 5,0 0,5 -5,0 z M 40,110 l 5,0 0,5 -5,0 z M 45,110 l 5,0 0,5 -5,0 z M 50,110 l 5,0 0,5 -5,0 z M 65,110 l 5,0 0,5 -5,0 z M 70,110 l 5,0 0,5 -5,0 z M 105,110 l 5,0 0,5 -5,0 z M 110,110 l 5,0 0,5 -5,0 z M 120,110 l 5,0 0,5 -5,0 z M 0,115 l 5,0 0,5 -5,0 z M 30,115 l 5,0 0,5 -5,0 z M 40,115 l 5,0 0,5 -5,0 z M 45,115 l 5,0 0,5 -5,0 z M 55,115 l 5,0 0,5 -5,0 z M 80,115 l 5,0 0,5 -5,0 z M 85,115 l 5,0 0,5 -5,0 z M 95,115 l 5,0 0,5 -5,0 z M 100,115 l 5,0 0,5 -5,0 z M 105,115 l 5,0 0,5 -5,0 z M 120,115 l 5,0 0,5 -5,0 z M 0,120 l 5,0 0,5 -5,0 z M 5,120 l 5,0 0,5 -5,0 z M 10,120 l 5,0 0,5 -5,0 z M 15,120 l 5,0 0,5 -5,0 z M 20,120 l 5,0 0,5 -5,0 z M 25,120 l 5,0 0,5 -5,0 z M 30,120 l 5,0 0,5 -5,0 z M 40,120 l 5,0 0,5 -5,0 z M 50,120 l 5,0 0,5 -5,0 z M 55,120 l 5,0 0,5 -5,0 z M 60,120 l 5,0 0,5 -5,0 z M 65,120 l 5,0 0,5 -5,0 z M 70,120 l 5,0 0,5 -5,0 z M 95,120 l 5,0 0,5 -5,0 z M 100,120 l 5,0 0,5 -5,0 z M 105,120 l 5,0 0,5 -5,0 z M 110,120 l 5,0 0,5 -5,0 z M 115,120 l 5,0 0,5 -5,0 z M 120,120 l 5,0 0,5 -5,0 z"/>
</svg>
