<svg xmlns="http://www.w3.org/2000/svg" viewBox="0 0 840 154" role="img" aria-labelledby="title desc">
  <title id="title">NOSTROOTS</title>
  <desc id="desc">Nostroots wordmark adapted from the Trustroots logo style.</desc>
  <g fill="#fff">
    <path d="M47.3 55.7c-3.3 0-5.1-2.4-4.9-5.3.2-3.8 1.8-5.3 4.3-5.4 3.5 0 4.1 2.3 4.3 5.2.1 2.9-1.1 5.4-3.7 5.5Zm12.1-17.1c-2.6.1-4-1.3-3.9-3.8.1-3.3 1.2-5 3.3-5 1.6 0 3.2 2.1 3.4 4.3 0 1.8-.1 4.4-2.8 4.5Zm6.3 3.6c-.5-4.6 1.2-7.2 3.8-6.9 3.4.4 4.9 2.6 5.3 6.2.5 5-1.3 5.8-3.9 6-2.6 0-4.8-1.8-5.2-5.3ZM24.4 52.5c-3.3.1-5.1-2.2-5-5 .3-3.8 1.7-5.3 4.3-5.3 3.5-.1 4.1 2.2 4.3 5 .1 3-1.2 5.3-3.6 5.3Zm11.6-.2c-3.4 0-5.3-2.4-5-5.5.4-4 2-5.5 4.6-5.5 3.7 0 4.2 2.4 4.3 5.5.2 3.1-1.2 5.5-3.9 5.5Zm10.3-25.4c3.8 0 5.7 2.7 5.5 7.1-.4 5.8-2.1 8.9-5 8.9-2.5 0-4.7-4-4.8-7.9 0-3.6.2-8.1 4.3-8.1Zm2.2-2.2c-3.3.1-5.1-2.8-5-6.5.1-4.9 1.6-6.9 4.2-6.9 3.4-.1 4.1 2.8 4.4 6.5.1 3.7-1 6.8-3.6 6.9Zm-37.3 7.4c-2.9.1-4.5-2.1-4.3-5.7.1-5 1.5-7.6 3.8-7.7 1.8-.1 3.6 3.1 3.8 6.5.1 2.9 0 6.8-3.3 6.9Zm62.1 1.9c-3.4 0-5.3-3.1-5-6.7.3-5 1.8-6.7 4.5-6.7 3.5.1 4.1 3.1 4.4 6.7 0 3.6-1.2 6.7-3.9 6.7ZM10 49.8c4 .1 6.1-2.2 5.9-6-.5-5.1-2.5-7.8-5.5-7.8-2.6 0-4.9 3.3-4.9 6.7-.1 3 .3 6.9 4.5 7.1Zm25.4-10.5c-3.4 0-5.3-2.8-5-6.2.4-4.5 2-6.2 4.6-6.1 3.7 0 4.2 2.8 4.3 6.1.3 3.5-1.2 6.2-3.9 6.2Zm-12.5 0c3.9 0 5.9-2.3 5.4-6-.7-4.9-2.7-7.4-5.8-7.4-2.4 0-4.5 3.3-4.5 6.7.1 2.9.8 6.7 4.9 6.7Zm37.3-11.8c3.9 0 5.7-3.6 5.1-8.1-.8-5.8-2.8-8.1-5.7-7.9-4.2.1-4.6 3.5-4.3 7.9.1 4.5 1.8 8.1 4.9 8.1ZM21.8 68.5c-3.3.1-5.1-2.9-5-6.7.1-5.1 1.7-7 4.3-7 3.5-.1 4.1 2.9 4.4 6.7.1 3.7-1.1 6.9-3.7 7Zm11.6-78.4c4.2 0 6.3 3.2 6 7-.5 5.1-2.4 7.1-5.6 6.9-4.4-.1-5-3.2-5.2-7-.1-3.8 1.6-6.9 4.8-6.9ZM0 59.4c-2.9.1-4.6-2.1-4.3-5.9.2-5 1.6-7.7 3.8-7.8 1.8-.1 3.6 3.2 3.8 6.6.2 2.9 0 6.9-3.3 7.1Zm48.3-68.3c-4 .1-5.8 4.3-5.1 9.2 1.1 6.6 3.2 8.9 6.3 8.6 4.3-.2 4.7-4.2 4.3-9.2-.4-4.8-2.3-8.7-5.5-8.6ZM7.4.5c3.6 0 5.6 2.7 5.3 7-.4 5.9-2.2 8.9-5 8.8-2.3 0-4.4-4-4.5-7.9 0-3.4.2-7.9 4.2-7.9Zm79 23c3.9 0 5.8-2.7 5.1-7-.8-5.9-2.9-8.9-6-8.8-2.4 0-4.4 4-4.3 7.9.3 3.3.9 7.9 5.2 7.9Zm-3.6 59c4 0 5.8-3.8 5.1-8.4-.8-6.1-2.9-8.4-6-8.3-4.2.1-4.5 3.6-4.4 8.3.4 4.6 2.2 8.4 5.3 8.4Zm-95.1-10.8c4 .3 6.2-2.3 5.9-6.6-.5-5.6-2.5-8.6-5.5-8.8-2.6-.1-4.9 3.5-5 7.5 0 3.3.4 7.7 4.6 7.9Zm-15-38.4c3.9.1 5.8-3.2 5.6-7.2-.4-5.5-2.2-7.6-5.1-7.6-4-.1-4.6 3.2-4.7 7.2-.2 4 1.3 7.5 4.2 7.6Zm14.6 8.7c-3.2-.1-4.8 1.7-4.5 4.6.4 4 1.8 6.2 4.2 6.3 2.1 0 3.8-2.6 3.9-5.4 0-2.3-.4-5.4-3.6-5.5Zm46.5 11.8c4.2.3 6.3 3.4 5.9 8.5-.6 6.9-2.7 10.4-6 10.1-2.7-.1-5-4.9-4.9-9.7 0-3.8.5-9.1 5-8.9ZM11.1 63.6c-3.4 0-5.2-2.4-4.9-5.5.4-4 2.1-5.5 4.6-5.5 3.7 0 4.1 2.4 4.3 5.5.1 3-1.4 5.5-4 5.5Zm-12-36.8c3.7.1 5.5 3.8 5 8.2-.6 5.9-2.4 7.9-5.3 7.7-3.9-.3-4.2-3.8-4.2-8.2.1-4.4 1.7-7.8 4.5-7.7Zm48 45.7c-4 0-6.1-2.3-5.9-6.1.4-5 2.3-7.7 5.4-7.6 2.6 0 4.9 3.4 5 6.8.1 2.9-.3 6.9-4.5 6.9Zm26.2-22.2c-3.9 0-5.7 3.3-5.1 7.4.7 5.5 2.8 7.5 5.7 7.5 4.2-.1 4.5-3.3 4.3-7.5 0-4.1-1.8-7.4-4.9-7.4Zm12.6-22.8c4.4 0 6.9 4 6.6 8.9-.2 6.6-2.3 9-5.7 8.9-4.6-.1-5.5-4-5.7-8.9-.1-4.8 1.6-8.9 4.8-8.9ZM60.3 53.1c-4.4 0-6.5 4.2-5.9 9 .8 6.7 3.1 9.2 6.5 9.2 4.6-.1 5.1-4.2 4.9-9.2-.1-5-2.2-9-5.5-9Zm-2.8-61.2c-4-.1-6.2-3.3-5.7-8.1.6-6.5 2.6-9.7 5.7-9.5 2.6.1 4.9 4.6 4.9 8.9 0 3.9-.5 8.9-4.9 8.7ZM15 86c4 .3 6.2-2.9 5.9-8.1-.5-7-2.4-10.6-5.6-10.6-2.6-.1-4.9 4.4-4.9 9.2-.1 4.1.4 9.4 4.6 9.5Zm6-80.2c-4.3 0-6.6-2.4-6.2-6.3.5-5.3 2.6-7.9 5.9-7.9 2.7 0 5.3 3.5 5.3 7 .3 3.2-.3 7.2-5 7.2Zm53.3 12.3c-3.9 0-5.9-3.9-5.7-8.5.2-6.2 2.1-8.5 5-8.4 4 .1 4.8 3.8 5 8.4.1 4.7-1.2 8.5-4.3 8.5ZM60.6-2.9c3.1 0 4.8 1.8 4.5 4.8-.3 3.9-1.7 6-4.1 5.9-2 0-3.8-2.7-3.9-5.4 0-2.3.2-5.3 3.5-5.3Zm-74.9 41.4c4 0 6.1-2.8 5.6-7.3-.6-6.1-2.7-9.2-5.7-9.2-2.6 0-4.8 4.2-4.7 8.2-.1 3.6.4 8.3 4.8 8.3ZM1 82c4.2 0 6.1-4.3 5.6-9.4-.7-6.9-2.7-9.4-5.9-9.3-4.3.1-4.7 4.2-4.7 9.3.1 5.1 1.8 9.4 5 9.4Zm69.9 6.5c-4.4 0-6.9-3.3-6.6-8.4.4-7 2.4-10.5 5.9-10.5 2.8 0 5.5 4.7 5.7 9.4 0 4-.2 9.5-5 9.5Zm-28.2 6.2c-3.5 0-5.4-3.4-5.1-7.6.4-5.5 1.9-7.6 4.6-7.6 3.8.1 4.3 3.4 4.4 7.6.2 4.2-1.1 7.6-3.9 7.6ZM29 92c4 0 6-2.9 5.4-7.4-.7-6.2-2.8-9.4-5.8-9.3-2.6 0-4.6 4.2-4.5 8.4.1 3.6.7 8.3 4.9 8.3Zm26.7 0c4 0 5.8-3.8 5.3-8.4-.9-6.2-2.8-8.4-5.9-8.4-4.2.1-4.6 3.8-4.4 8.4.1 4.7 1.9 8.4 5 8.4Zm-65.4-103.5c4.3 0 6.6 2.5 6.1 6.5-.5 5.4-2.7 8.2-6 8.2-2.8 0-5.1-3.6-5.3-7.4.1-3.1.5-7.3 5.2-7.3ZM96.4 21c3.9 0 6 3.3 5.7 7.4-.2 5.5-1.9 7.4-5 7.4-4.2-.1-4.8-3.3-5-7.4-.1-4.1 1.3-7.4 4.3-7.4Zm-115.7-19.8c-4 0-6.1 3.1-5.7 7.9.6 6.6 2.7 10 5.8 10 2.6 0 4.9-4.5 4.8-9 .1-3.8-.5-8.9-4.9-8.9Zm15.5 3.7c-4-.4-6.3 3.6-6.2 8.8.1 6.9 1.8 9.5 5 9.8 4.3.3 5.1-3.8 5.5-8.9.2-5.1-1.2-9.4-4.3-9.7Zm74-25c4.3 0 6.6 3.5 6.4 7.8-.4 5.7-2.3 7.9-5.6 7.8-4.5-.1-5.2-3.5-5.5-7.8-.1-4.4 1.5-7.8 4.3-7.8ZM84.1 48c3.3 0 5.1 2.7 5 7.2-.1 6-1.7 9-4.2 8.9-2.1 0-4.2-4-4.3-8.1-.4-3.4-.1-8 3.5-8Zm.7 54.3c-4.5.3-6.9-2.3-6.8-6.6.1-5.6 2.1-8.6 5.6-8.8 2.8-.1 5.6 3.6 6 7.5.1 3.4 0 7.8-4.8 7.9Zm29.7-36.8c-3.9.1-6.2-3.2-6.1-7.2 0-5.5 1.7-7.6 4.7-7.6 4.2-.1 5 3.2 5.4 7.2.4 4.2-1 7.5-4 7.6Zm-6.8 4.6c3.2-.1 5 1.7 4.9 4.7-.1 4-1.5 6.2-3.9 6.2-2.1 0-4-2.6-4.3-5.4-.3-2.3-.2-5.3 3.3-5.5Zm-10.7 22.5c4.5-.3 6.6-3.4 5.6-8.5-1.2-6.7-3.8-10.1-7.2-10-2.8.1-4.9 4.7-4.5 9.3.2 4.1 1.2 9.3 6.1 9.2Zm-29 19.7c4.5-.3 6.5-4.5 5.6-9.7-1.2-6.9-3.5-9.3-7.1-9-4.7.2-5 4.4-4.6 9.5.4 5.1 2.6 9.3 6.1 9.2Zm44.3-65.6c4.3 0 6.1-3.6 5.5-7.9-1-5.8-3.2-7.9-6.3-7.9-4.5.1-4.9 3.5-4.5 7.9.1 4.4 2 7.9 5.3 7.9Zm-16.1 5.2c4.4 0 7 3.1 6.7 8-.2 6.7-2.3 10.2-5.7 10.1-2.8 0-5.6-4.5-5.9-9.1-.2-3.9 0-9 4.9-9ZM-25.2 72.8c3.6.1 5.6-3.2 5.4-7.2-.4-5.5-2.1-7.6-4.9-7.7-3.9-.1-4.5 3.2-4.6 7.2-.1 4.2 1.3 7.6 4.1 7.7ZM58.3 40.8c-3.3-.1-4.9 1.6-4.6 4.4.5 3.8 2.1 5.9 4.5 5.9 2.1 0 3.9-2.4 3.9-5 .1-2.1-.3-5-3.8-5.3Zm42.2-2.7c-3.3-.1-4.9 1.8-4.5 5 .5 4.4 2.2 6.6 4.7 6.7 2.1 0 3.8-2.8 3.8-5.7-.1-2.5-.6-5.9-4-6ZM84.9 2.7c-4.2-.1-6.2-4.2-5.9-8.9.5-6.3 2.4-8.5 5.6-8.4 4.3.3 4.9 4 5 8.8.1 4.8-1.6 8.6-4.7 8.5Zm22.2 24.7c3.6 0 5.4-2.7 4.8-7-.9-5.7-2.8-8.7-5.7-8.7-2.3 0-4.2 3.9-3.9 7.8.1 3.3.9 7.9 4.8 7.9ZM19.6 8.7c3.9 0 6 2.6 5.6 6.7-.4 5.6-2.3 8.4-5.2 8.4-2.5 0-4.8-3.8-4.9-7.6 0-3.3.4-7.5 4.5-7.5Zm14.6 15.8c4.4 0 6.3-4 5.7-8.8-.8-6.5-2.9-8.8-6.3-8.8-4.5.1-5 3.9-4.9 8.8.2 4.9 2.1 8.8 5.5 8.8Zm7.9-52.7c3.8 0 5.8 2.6 5.6 6.7-.4 5.6-2.2 8.5-5.1 8.4-2.4 0-4.7-3.8-4.9-7.6 0-3.3.2-7.5 4.4-7.5ZM96  -1.6c3.9 0 6 3.5 5.9 7.7-.3 5.7-2 7.8-5 7.8-4.2-.1-4.8-3.5-5-7.8-.4-4.1 1.1-7.7 4.1-7.7ZM-17.5 76c-2.9-.1-4.6 1.7-4.3 4.7.4 4 1.7 6.2 4 6.3 2 0 3.6-2.6 3.6-5.4.3-2.3 0-5.5-3.3-5.6Zm41.1 35.9c3.8 0 5.6-2.8 5.1-7.5-.7-6.1-2.7-9.3-5.6-9.2-2.4 0-4.4 4.2-4.3 8.3.1 3.6.6 8.4 4.8 8.4Zm-6.6-121.8c3.8 0 5.6-3.1 5.1-6.9-.6-5-2.6-6.9-5.5-6.9-4 .1-4.4 3.1-4.4 6.9.1 3.8 1.8 6.9 4.8 6.9Zm-42.6 63.8c-4.4 0-6.9-3.1-6.3-8 .6-6.6 2.8-10 6.2-10 2.8 0 5.3 4.5 5.4 8.9 0 4-.5 9.1-5.3 9.1ZM4.6-1.5C.2-1.5-2-5.4-1.6-10.1c.5-6.3 2.6-8.6 5.9-8.5 4.6.1 5.2 3.8 5.4 8.5.1 4.7-1.6 8.6-5.1 8.6Zm25.4 99.7c5.1 0 10.5-2.6 10.3 5.7-.4 9 .7 17 .8 21 0 8.9 15.9 7.3 13.3 10.4-.4.5-1.3 1.6-4.9 1.3-2.8-.1-9.9-3.5-12.3-3.8-5.7-.5-13.4 7.2-19.5 8.8-4.9.7-7.3.3-7.1-1.3.4-2.3 11.7-2 13.1-9.9-2.4 1.3-11.4 3.6-12.3 1.2-1.6-3.9 6.2-2.1 7.8-5.9 1.1-2.7.1-10.8.1-23.7-.2-3.6 1.9-3.8 10.7-3.8Zm7.6 27.3c0 8.9 19.3 7.4 16.7 10.5-.4.5-1.3 1.6-4.9 1.3-2.8-.1-9.9-3.9-12.3-4.2-5.7-.5-13.4 7.6-19.5 9-4.9.8-7.3.3-7.1-1.3.4-2.3 11.7-2 13.1-9.9-2.4 1.3-11.4 3.6-12.3 1.2-2.1-5 14.5.3 11.3-10.6" transform="translate(46 30) scale(.78)"/>
    <text x="152" y="111" font-family="'Arial Narrow', 'Roboto Condensed', 'Helvetica Neue Condensed', Arial, sans-serif" font-size="105" font-weight="700" letter-spacing="2">NOSTROOTS</text>
  </g>
</svg>
